# xmcd
#
# Track frame offsets:
#	150
#	28713
#	55405
#	81762
#	109492
#	136446
#	161733
#	266622
#
# Disc length: 3880
#
# Revision: 2
# Processed by: cddbd v1.5.1PL0 Copyright (c) Steve Scherf et al.
# Submitted via: EasyCDDAExtractor 6.5.0.3
# Normalized: r1:DSETVAR1
#
DISCID=700f2608
DTITLE=Various Artist - Funkymix 75 Disc 2
DYEAR=2004
DGENRE=Hip-Hop
TTITLE0=Eamon - F**k It (I Don't Want You Back)
TTITLE1=Nick Cannon feat. R. Kelly - Gigalo
TTITLE2=Juvenille - In My Life
TTITLE3=Marques Houston feat. JD - Pop That Booty
TTITLE4=Chingy - One Call Away
TTITLE5=Westside Connection feat. Nate Dogg - Gangsta Nation
TTITLE6=Various Artist - Another 25 Issues Of Funk
TTITLE7=B2K feat. Fabolous - Badaboom
EXTD=
EXTT0=
EXTT1=
EXTT2=
EXTT3=
EXTT4=
EXTT5=
EXTT6=
EXTT7=
PLAYORDER=
